<?xml version="1.0" encoding="UTF-8"?>
<svg version="1.1" xmlns="http://www.w3.org/2000/svg" width="505" height="403">
<path d="M0 0 C4.67032872 2.5522525 9.28845785 5.15945184 13.859375 7.88671875 C16.0021801 9.15176026 18.14542538 10.41605638 20.2890625 11.6796875 C21.40249023 12.33759277 22.51591797 12.99549805 23.66308594 13.67333984 C30.48070859 17.68103556 37.34474313 21.60850153 44.20214844 25.54760742 C46.21549555 26.70634887 48.22605864 27.86994519 50.23339844 29.0390625 C52.17172909 30.15796305 54.12343185 31.25397337 56.08691406 32.328125 C57.0044043 32.84246094 57.92189453 33.35679687 58.8671875 33.88671875 C60.09526123 34.55767578 60.09526123 34.55767578 61.34814453 35.2421875 C61.92935059 35.72300781 62.51055664 36.20382812 63.109375 36.69921875 C63.109375 38.01921875 63.109375 39.33921875 63.109375 40.69921875 C62.14668701 41.22273926 62.14668701 41.22273926 61.16455078 41.75683594 C37.71332115 54.51814714 37.71332115 54.51814714 14.59106445 67.86157227 C8.31579629 71.59094814 1.99711232 75.24281687 -4.328125 78.88671875 C-5.43551025 79.52480469 -6.54289551 80.16289062 -7.68383789 80.8203125 C-9.95431579 82.12828566 -12.224906 83.43606388 -14.49560547 84.74365234 C-19.96232478 87.89253928 -25.42638092 91.04603919 -30.890625 94.19921875 C-37.47234543 97.99663283 -44.05426573 101.79369968 -50.63671875 105.58984375 C-51.74700439 106.23050781 -52.85729004 106.87117188 -54.0012207 107.53125 C-56.19529446 108.79613907 -58.39042218 110.05920194 -60.58666992 111.3203125 C-65.61015919 114.20825117 -70.61308321 117.12061964 -75.5703125 120.12109375 C-76.44244385 120.64348633 -77.3145752 121.16587891 -78.21313477 121.70410156 C-79.8225412 122.6704713 -81.42516967 123.64826097 -83.01928711 124.63964844 C-84.07901733 125.27241699 -84.07901733 125.27241699 -85.16015625 125.91796875 C-85.76448486 126.28857422 -86.36881348 126.65917969 -86.99145508 127.04101562 C-89.65036709 127.96252569 -91.21547961 127.50895266 -93.890625 126.69921875 C-96.26464844 125.52270508 -96.26464844 125.52270508 -98.75 124.03125 C-100.1575354 123.1964209 -100.1575354 123.1964209 -101.59350586 122.34472656 C-103.10182983 121.4373877 -103.10182983 121.4373877 -104.640625 120.51171875 C-106.80222614 119.22981399 -108.96502533 117.94992768 -111.12890625 116.671875 C-112.24346191 116.0133252 -113.35801758 115.35477539 -114.50634766 114.67626953 C-119.90385901 111.52311364 -125.36415031 108.48527249 -130.828125 105.44921875 C-138.37646359 101.24525595 -145.88345717 96.99051783 -153.31494141 92.58349609 C-169.51342923 82.98310752 -185.89386462 73.6894154 -202.25045776 64.36175537 C-209.94947236 59.96990487 -217.62245749 55.53943515 -225.25 51.0246582 C-231.75516783 47.17593352 -238.31661494 43.42900576 -244.890625 39.69921875 C-243.45483567 36.08319249 -241.89619695 34.79686875 -238.5078125 32.95703125 C-237.5995874 32.45518311 -236.6913623 31.95333496 -235.75561523 31.4362793 C-234.76891846 30.90429932 -233.78222168 30.37231934 -232.765625 29.82421875 C-230.6696549 28.66832975 -228.57463277 27.51072044 -226.48046875 26.3515625 C-225.39491699 25.75327637 -224.30936523 25.15499023 -223.19091797 24.53857422 C-217.85751859 21.56610559 -212.5941265 18.47651364 -207.328125 15.38671875 C-206.32402588 14.80156494 -205.31992676 14.21641113 -204.28540039 13.61352539 C-199.98596125 11.1077435 -195.69619906 8.59131713 -191.4453125 6.00390625 C-190.47766968 5.42443237 -190.47766968 5.42443237 -189.49047852 4.83325195 C-187.85354075 3.85189424 -186.22513824 2.85633567 -184.59765625 1.859375 C-181.34837812 0.46682723 -180.24211956 0.76202081 -176.890625 1.69921875 C-174.56420898 2.84399414 -174.56420898 2.84399414 -172.13671875 4.296875 C-171.21415283 4.8429541 -170.29158691 5.3890332 -169.34106445 5.95166016 C-168.34679443 6.54897949 -167.35252441 7.14629883 -166.328125 7.76171875 C-164.16480003 9.04291282 -162.00070574 10.32280855 -159.8359375 11.6015625 C-158.70188477 12.27300293 -157.56783203 12.94444336 -156.39941406 13.63623047 C-150.53630022 17.09406396 -144.61751758 20.45516078 -138.703125 23.82421875 C-137.51761157 24.50048564 -136.33214591 25.17683628 -135.14672852 25.85327148 C-130.68899859 28.39642769 -126.22957905 30.93661622 -121.77001953 33.4765625 C-119.83040855 34.58144861 -117.89102666 35.68673703 -115.9519043 36.79248047 C-114.23912604 37.76912055 -112.52580376 38.7448076 -110.81176758 39.71923828 C-110.0411499 40.15864746 -109.27053223 40.59805664 -108.4765625 41.05078125 C-107.35459473 41.6854834 -107.35459473 41.6854834 -106.20996094 42.33300781 C-104.54653744 43.3128518 -102.91171139 44.34187277 -101.29785156 45.40136719 C-100.43385742 45.96114258 -99.56986328 46.52091797 -98.6796875 47.09765625 C-97.51880615 47.87761963 -97.51880615 47.87761963 -96.33447266 48.67333984 C-93.07732329 50.04062672 -91.26734048 49.62655308 -87.890625 48.69921875 C-85.41063642 47.58693057 -85.41063642 47.58693057 -83.0390625 46.1015625 C-82.11996094 45.55564453 -81.20085937 45.00972656 -80.25390625 44.44726562 C-79.26777344 43.84978516 -78.28164063 43.25230469 -77.265625 42.63671875 C-75.10758171 41.35280274 -72.94869284 40.07030718 -70.7890625 38.7890625 C-69.66081055 38.1172998 -68.53255859 37.44553711 -67.37011719 36.75341797 C-62.16896475 33.67093532 -56.91057271 30.68868114 -51.65426636 27.70159912 C-40.99077384 21.64091363 -30.36956167 15.5108013 -19.79101562 9.30273438 C-18.0007073 8.2534183 -16.20677813 7.21024702 -14.40869141 6.17431641 C-12.73000491 5.19093228 -11.0702007 4.17458372 -9.43115234 3.12646484 C-3.7415751 -0.38932606 -3.7415751 -0.38932606 0 0 Z " fill="#0B4B6B" transform="translate(342.890625,245.30078125)"/>
<path d="M0 0 C2.22411485 0.82080429 4.15923723 1.80762762 6.21191406 2.99487305 C7.02329834 3.46119141 7.83468262 3.92750977 8.6706543 4.40795898 C9.54536377 4.91746094 10.42007324 5.42696289 11.32128906 5.9519043 C12.23789307 6.48074219 13.15449707 7.00958008 14.09887695 7.55444336 C17.09333633 9.28487814 20.08293277 11.02345281 23.07128906 12.7644043 C24.09657715 13.36140137 25.12186523 13.95839844 26.17822266 14.57348633 C30.32016271 16.9866504 34.46081118 19.40200774 38.59960938 21.82055664 C47.23613298 26.86719995 55.89325321 31.87374076 64.62597656 36.75268555 C73.60556973 41.77247892 82.503444 46.92086097 91.38134766 52.1184082 C98.66245225 56.37486254 105.97199523 60.57917416 113.29977417 64.7545166 C116.81336521 66.75750984 120.32397201 68.76573136 123.83485413 70.77346802 C126.76476741 72.44842978 129.6963613 74.12031839 132.63134766 75.78637695 C136.01295888 77.70648044 139.38607737 79.64120796 142.75878906 81.5769043 C143.78681641 82.15762695 144.81484375 82.73834961 145.87402344 83.33666992 C146.80923828 83.87614258 147.74445313 84.41561523 148.70800781 84.97143555 C149.53002686 85.4404126 150.3520459 85.90938965 151.19897461 86.39257812 C153.07128906 87.7644043 153.07128906 87.7644043 154.07128906 90.7644043 C153.53052734 91.05460449 152.98976563 91.34480469 152.43261719 91.64379883 C141.44112265 97.55644897 130.53293759 103.5882621 119.75878906 109.8894043 C118.25868286 110.76471802 118.25868286 110.76471802 116.72827148 111.65771484 C112.10803207 114.36317853 107.51010318 117.09651164 102.95410156 119.90893555 C102.17591064 120.38379395 101.39771973 120.85865234 100.59594727 121.34790039 C99.16738567 122.22228541 97.74600383 123.10856169 96.33374023 124.0090332 C91.71881971 126.82224225 91.71881971 126.82224225 88.7097168 126.5534668 C85.66121397 125.64176502 83.23929019 124.34622743 80.49316406 122.73706055 C79.42267822 122.11436279 78.35219238 121.49166504 77.24926758 120.85009766 C76.11803467 120.18244385 74.98680176 119.51479004 73.82128906 118.8269043 C72.64709715 118.14080753 71.47253391 117.45534587 70.29760742 116.77050781 C66.88339469 114.77763794 63.47668455 112.77230501 60.07128906 110.7644043 C59.18006348 110.23943359 58.28883789 109.71446289 57.37060547 109.17358398 C54.44128524 107.4475155 51.51197686 105.72144727 48.58569336 103.99023438 C43.96041047 101.26134639 39.27560118 98.66445726 34.54394531 96.1237793 C32.01188027 94.73174354 29.54100018 93.2640098 27.07128906 91.7644043 C22.70023778 89.11129393 18.2562498 86.63240246 13.74316406 84.22924805 C11.99607025 83.27141153 10.27470204 82.26465867 8.58691406 81.20581055 C4.18569147 78.37611865 4.18569147 78.37611865 -0.86621094 78.0769043 C-4.33645171 79.98907778 -7.74468357 81.97537403 -11.11450195 84.05957031 C-13.69067911 85.62020578 -16.29017266 87.08427614 -18.94042969 88.5144043 C-33.03489289 96.1573349 -47.12906074 103.84808655 -60.92871094 112.0144043 C-61.57622314 112.39669189 -62.22373535 112.77897949 -62.89086914 113.17285156 C-65.73961012 114.85947976 -68.5824116 116.55504721 -71.41552734 118.26782227 C-74.01792784 119.8397128 -76.62905448 121.39629482 -79.24121094 122.9519043 C-80.04880859 123.44658203 -80.85640625 123.94125977 -81.68847656 124.45092773 C-82.44451172 124.89855469 -83.20054687 125.34618164 -83.97949219 125.80737305 C-84.64634033 126.20980225 -85.31318848 126.61223145 -86.00024414 127.02685547 C-88.49748561 127.98193415 -89.44510174 127.7252609 -91.92871094 126.7644043 C-93.79852949 125.80171668 -95.63941372 124.78214725 -97.45996094 123.72924805 C-98.56758789 123.09220947 -99.67521484 122.4551709 -100.81640625 121.79882812 C-102.02055705 121.09993834 -103.22465736 120.40096156 -104.42871094 119.7019043 C-105.67159127 118.98485953 -106.91475985 118.2683142 -108.15820312 117.55224609 C-110.09690531 116.43551833 -112.03529751 115.31827475 -113.97259521 114.19911194 C-118.54773718 111.55616242 -123.13314314 108.93185145 -127.72558594 106.3190918 C-128.35464844 105.96095901 -128.98371094 105.60282623 -129.63183594 105.23384094 C-132.072577 103.84435072 -134.51334117 102.45490646 -136.95532227 101.06759644 C-143.36511219 97.42444935 -149.71217398 93.72934189 -155.92871094 89.7644043 C-153.593398 87.18871945 -151.16646074 85.62317436 -148.13183594 83.9440918 C-147.18018555 83.41307861 -146.22853516 82.88206543 -145.24804688 82.33496094 C-144.23516602 81.77542725 -143.22228516 81.21589355 -142.17871094 80.6394043 C-134.18917919 76.18054976 -126.27450958 71.64603444 -118.47558594 66.86206055 C-114.72078184 64.59922427 -110.86041454 62.53728869 -107.00683594 60.44873047 C-101.92005187 57.66528161 -96.8843849 54.79221457 -91.85009766 51.9152832 C-90.06383238 50.89518444 -88.27561954 49.87856087 -86.48730469 48.86206055 C-79.51441429 44.88676241 -72.63872309 40.78674867 -65.83129883 36.53393555 C-62.1385114 34.28266771 -58.35362152 32.23505106 -54.54199219 30.1940918 C-51.15920694 28.34342005 -47.87846129 26.3417908 -44.58422852 24.33911133 C-42.07173508 22.84921681 -39.5325854 21.44418815 -36.95996094 20.0612793 C-30.38433198 16.49102169 -23.90532227 12.76053517 -17.42871094 9.0144043 C-16.25168232 8.33592395 -15.07459923 7.6575381 -13.89746094 6.97924805 C-1.49661533 -0.1828144 -1.49661533 -0.1828144 0 0 Z " fill="#15A2EE" transform="translate(252.9287109375,16.235595703125)"/>
<path d="M0 0 C2.95115578 1.38335427 5.75336722 2.91386578 8.578125 4.54052734 C9.71822021 5.19472656 10.85831543 5.84892578 12.03295898 6.52294922 C13.25639863 7.22924113 14.47978618 7.9356233 15.703125 8.64208984 C16.9634474 9.36700467 18.22394716 10.09161124 19.48461914 10.81591797 C21.39435705 11.91332623 23.30389562 13.01107065 25.21266174 14.11016846 C29.97072826 16.84979082 34.74171823 19.56609456 39.5168457 22.27587891 C46.21948374 26.0852874 52.91125021 29.91415101 59.515625 33.89208984 C60.53269531 34.50310547 61.54976562 35.11412109 62.59765625 35.74365234 C63.29246094 36.24638672 63.98726562 36.74912109 64.703125 37.26708984 C64.703125 37.92708984 64.703125 38.58708984 64.703125 39.26708984 C64.11789063 39.58419922 63.53265625 39.90130859 62.9296875 40.22802734 C47.09059584 48.82542794 47.09059584 48.82542794 31.43359375 57.74755859 C30.78337753 58.12732346 30.13316132 58.50708832 29.46324158 58.89836121 C28.07516751 59.72341054 26.69724637 60.56601504 25.3346405 61.43247986 C21.54629733 63.80147598 18.06831928 65.55633689 13.77001953 66.80761719 C7.92976865 68.78418602 3.24222901 71.05263925 -0.296875 76.26708984 C-3.54234087 87.80767858 -2.47318248 100.39259232 -2.06506348 112.25311279 C-1.93032525 116.76419358 -1.90453817 121.27581408 -1.86914062 125.78857422 C-1.78403201 134.61882343 -1.57909188 143.44094988 -1.296875 152.26708984 C-5.22882972 150.99532544 -8.66343337 149.64976016 -12.21875 147.53662109 C-13.61456299 146.71387695 -13.61456299 146.71387695 -15.03857422 145.87451172 C-16.03131348 145.2821875 -17.02405273 144.68986328 -18.046875 144.07958984 C-20.1896801 142.81454833 -22.33292538 141.55025221 -24.4765625 140.28662109 C-26.1467041 139.29976318 -26.1467041 139.29976318 -27.85058594 138.29296875 C-34.66820859 134.28527303 -41.53224313 130.35780706 -48.38964844 126.41870117 C-51.36241302 124.70778628 -54.33010022 122.98836469 -57.296875 121.26708984 C-58.25625977 120.71794922 -59.21564453 120.16880859 -60.20410156 119.60302734 C-61.10354492 119.07966797 -62.00298828 118.55630859 -62.9296875 118.01708984 C-63.7252002 117.55818359 -64.52071289 117.09927734 -65.34033203 116.62646484 C-67.296875 115.26708984 -67.296875 115.26708984 -69.296875 112.26708984 C-69.55084229 109.19984436 -69.55084229 109.19984436 -69.55566406 105.38061523 C-69.5591687 104.68434525 -69.56267334 103.98807526 -69.56628418 103.27070618 C-69.57508794 100.96861811 -69.56925662 98.66683731 -69.5625 96.36474609 C-69.5638472 94.76435792 -69.56578818 93.16397015 -69.56829834 91.56358337 C-69.57124789 88.20860907 -69.56695799 84.85374123 -69.55761719 81.4987793 C-69.54623191 77.20012703 -69.55277725 72.90172476 -69.56476212 68.6030817 C-69.57199316 65.2976646 -69.56968691 61.99230664 -69.56450653 58.68688774 C-69.563173 57.1020651 -69.56480738 55.51723708 -69.56946564 53.93242073 C-69.57455032 51.7157891 -69.5667932 49.49956063 -69.55566406 47.28295898 C-69.55407288 46.02181778 -69.55248169 44.76067657 -69.55084229 43.46131897 C-69.30912692 40.42118623 -68.99658287 38.75926139 -67.296875 36.26708984 C-64.81689453 34.53466797 -64.81689453 34.53466797 -61.6796875 32.79833984 C-61.11494217 32.4812204 -60.55019684 32.16410095 -59.96833801 31.83737183 C-58.12472073 30.804297 -56.27336599 29.78597368 -54.421875 28.76708984 C-51.86072263 27.33674598 -49.30366922 25.89912954 -46.74609375 24.46240234 C-46.10855667 24.10570465 -45.47101959 23.74900696 -44.81416321 23.38150024 C-39.21999682 20.24542901 -33.7149023 16.97268763 -28.234375 13.64208984 C-22.3662732 10.08895421 -16.49450494 6.5858028 -10.421875 3.38818359 C-8.55747556 2.4045758 -6.73532988 1.34172977 -4.921875 0.26708984 C-2.296875 -0.73291016 -2.296875 -0.73291016 0 0 Z " fill="#15A2ED" transform="translate(77.296875,118.73291015625)"/>
<path d="M0 0 C2.26019697 1.40552729 4.35109809 2.91688493 6.5 4.5 C8.11504034 5.47502435 9.73937174 6.4349213 11.375 7.375 C12.17679687 7.86871094 12.97859375 8.36242187 13.8046875 8.87109375 C16.99636341 10.79997615 20.24357672 12.62125071 23.5 14.4375 C30.57929032 18.39583184 37.61958594 22.42097558 44.64770508 26.4692688 C45.84007764 27.15594837 47.03278579 27.84204553 48.22583008 28.52755737 C49.91061764 29.49588779 51.59401065 30.46664336 53.27734375 31.4375 C54.75062134 32.28634766 54.75062134 32.28634766 56.25366211 33.15234375 C58.5 34.5 58.5 34.5 59.5 35.5 C59.66396243 37.85970289 59.76332368 40.1917991 59.81982422 42.55493164 C59.84085205 43.29325226 59.86187988 44.03157288 59.88354492 44.79226685 C60.06679327 51.6224043 60.17265426 58.45427342 60.25568962 65.28629398 C60.31226558 69.87711311 60.39369437 74.46442676 60.53564453 79.0534668 C60.67232035 83.49001357 60.74455859 87.92338592 60.77234268 92.36190605 C60.79376866 94.04992736 60.83772485 95.73782473 60.905056 97.42463875 C61.10670613 102.72171859 61.08112501 107.40736235 59.5 112.5 C55.57605856 116.39568505 51.57299804 118.28398749 46.5 120.5 C44.28182959 121.71059589 42.12238239 122.99745235 39.94921875 124.2890625 C37.69658101 125.56994179 35.44263806 126.84852796 33.1875 128.125 C30.74376644 129.50991935 28.30105082 130.89661216 25.859375 132.28515625 C25.24851547 132.63253342 24.63765594 132.97991058 24.00828552 133.33781433 C19.79569114 135.74122597 15.61712261 138.1970825 11.453125 140.68359375 C10.35395752 141.3369873 9.25479004 141.99038086 8.12231445 142.66357422 C6.03507374 143.9080785 3.95266701 145.16073441 1.87573242 146.42236328 C0.94607666 146.97520996 0.0164209 147.52805664 -0.94140625 148.09765625 C-1.75295166 148.58758057 -2.56449707 149.07750488 -3.40063477 149.58227539 C-5.5 150.5 -5.5 150.5 -8.5 149.5 C-8.5 124.42 -8.5 99.34 -8.5 73.5 C-10.15 72.84 -11.8 72.18 -13.5 71.5 C-14.70671757 70.89447864 -15.90166607 70.26478438 -17.08203125 69.609375 C-17.75435791 69.23683594 -18.42668457 68.86429687 -19.11938477 68.48046875 C-20.20497681 67.87138672 -20.20497681 67.87138672 -21.3125 67.25 C-22.08585693 66.81816406 -22.85921387 66.38632813 -23.65600586 65.94140625 C-32.3864083 61.04133169 -41.02942528 55.9909832 -49.66015625 50.91796875 C-53.35976469 48.74419783 -57.0729215 46.59944108 -60.80859375 44.48828125 C-61.6070874 44.03259766 -62.40558105 43.57691406 -63.22827148 43.10742188 C-64.70582169 42.26519444 -66.1882061 41.43137296 -67.67602539 40.60742188 C-69.625 39.48828125 -69.625 39.48828125 -72.5 37.5 C-72.5 36.51 -72.5 35.52 -72.5 34.5 C-71.75129639 34.07291748 -71.00259277 33.64583496 -70.23120117 33.20581055 C-66.71628215 31.20032302 -63.20177365 29.19411817 -59.6875 27.1875 C-59.0491925 26.823078 -58.41088501 26.45865601 -57.75323486 26.08319092 C-50.70554293 22.05869106 -43.66012222 18.03114334 -36.6484375 13.9440918 C-35.14108548 13.0694974 -33.62937617 12.20236715 -32.11328125 11.34301758 C-28.24686635 9.1465378 -24.51177472 6.85790017 -20.83203125 4.359375 C-7.71337672 -4.25565612 -7.71337672 -4.25565612 0 0 Z " fill="#16A2ED" transform="translate(436.5,120.5)"/>
<path d="M0 0 C9.37307892 4.81917737 18.49600594 10.00799174 27.58056641 15.34960938 C30.55341199 17.09452893 33.5319992 18.82934624 36.51171875 20.5625 C45.81087478 25.97365294 55.10061615 31.39425129 64.3125 36.953125 C61.84380845 39.70825936 59.13475209 41.35283724 55.9296875 43.17578125 C54.85340088 43.79163086 53.77711426 44.40748047 52.66821289 45.04199219 C51.50798105 45.69987999 50.34774329 46.35775738 49.1875 47.015625 C47.4014473 48.03549115 45.61639606 49.0570952 43.83137512 50.07876587 C42.64548234 50.75735674 41.45927462 51.43539753 40.27275085 52.11288452 C32.39543718 56.57191257 32.39543718 56.57191257 24.67407227 61.29200745 C20.9856166 63.59051535 17.61047106 65.24998409 13.42822266 66.46313477 C7.57247721 68.44822843 2.86710027 70.72920829 -0.6875 75.953125 C-3.93781025 87.49083563 -2.86374668 100.08039429 -2.45568848 111.93914795 C-2.32095025 116.45022874 -2.29516317 120.96184923 -2.25976562 125.47460938 C-2.17465701 134.30485859 -1.96971688 143.12698504 -1.6875 151.953125 C-6.51736927 150.42169272 -10.62556555 148.39321005 -14.9375 145.765625 C-16.4419326 144.86458893 -17.9471981 143.96494263 -19.453125 143.06640625 C-20.28005859 142.57221191 -21.10699219 142.07801758 -21.95898438 141.56884766 C-27.17328781 138.48113648 -32.43392558 135.47335087 -37.6875 132.453125 C-45.38839526 128.0175836 -53.08502917 123.5755316 -60.75 119.078125 C-61.45189453 118.66755859 -62.15378906 118.25699219 -62.87695312 117.83398438 C-67.56676578 115.07385922 -67.56676578 115.07385922 -68.6875 113.953125 C-68.82215102 111.74658836 -68.88667284 109.53575602 -68.92456055 107.32543945 C-68.94422882 106.28629143 -68.94422882 106.28629143 -68.96429443 105.22615051 C-69.00626113 102.92295973 -69.04067701 100.61973421 -69.07421875 98.31640625 C-69.09986885 96.71794933 -69.12565288 95.11949455 -69.15156555 93.52104187 C-69.20463022 90.16259001 -69.25353295 86.80410525 -69.30004883 83.44555664 C-69.36024045 79.14915194 -69.43448951 74.85311853 -69.51242352 70.55700397 C-69.57015541 67.25161315 -69.61839236 63.94613259 -69.664011 60.64055443 C-69.68736666 59.05733103 -69.71410545 57.4741537 -69.74432945 55.89104652 C-69.785691 53.66997182 -69.81375029 51.44909566 -69.83862305 49.2277832 C-69.86740791 47.33368462 -69.86740791 47.33368462 -69.89677429 45.40132141 C-69.68219202 41.86566578 -69.08804643 39.19993392 -67.6875 35.953125 C-65.09643555 33.93017578 -65.09643555 33.93017578 -61.82421875 32.1484375 C-60.94247734 31.65692703 -60.94247734 31.65692703 -60.04292297 31.15548706 C-58.16277524 30.11193085 -56.26999221 29.09443097 -54.375 28.078125 C-52.53057159 27.06809822 -50.68914479 26.05276714 -48.84809875 25.03659058 C-47.62303782 24.36070963 -46.39678532 23.686984 -45.1693573 23.01541138 C-39.85594885 20.09356811 -34.70493695 16.94657006 -29.5703125 13.72265625 C-25.89883007 11.46902272 -22.13024679 9.43213683 -18.33203125 7.40234375 C-14.74259237 5.43531003 -11.26173211 3.30504453 -7.78125 1.15234375 C-4.68905188 -0.61874733 -3.41077393 -1.32861543 0 0 Z " fill="#16A2ED" transform="translate(254.6875,119.046875)"/>
<path d="M0 0 C3.87639923 0.46793586 6.73805482 1.75505862 10.11328125 3.66796875 C11.10255615 4.22484375 12.09183105 4.78171875 13.11108398 5.35546875 C14.16755127 5.96003906 15.22401855 6.56460938 16.3125 7.1875 C17.95810913 8.11949219 17.95810913 8.11949219 19.63696289 9.0703125 C33.83247889 17.13394156 47.990492 25.28303094 61.90844727 33.81835938 C64.07904664 35.13263655 64.07904664 35.13263655 67 36 C67 61.41 67 86.82 67 113 C62.71543596 111.57181199 59.8089992 110.48701477 56.078125 108.26953125 C54.68231201 107.44678711 54.68231201 107.44678711 53.25830078 106.60742188 C52.26556152 106.01509766 51.27282227 105.42277344 50.25 104.8125 C48.1071949 103.54745849 45.96394962 102.28316237 43.8203125 101.01953125 C42.70688477 100.36162598 41.59345703 99.7037207 40.44628906 99.02587891 C33.62866641 95.01818319 26.76463187 91.09071722 19.90722656 87.15161133 C16.93446198 85.44069644 13.96677478 83.72127485 11 82 C10.04061523 81.45085937 9.08123047 80.90171875 8.09277344 80.3359375 C7.19333008 79.81257813 6.29388672 79.28921875 5.3671875 78.75 C4.5716748 78.29109375 3.77616211 77.8321875 2.95654297 77.359375 C1 76 1 76 -1 73 C-1.24723816 69.91256714 -1.24723816 69.91256714 -1.24291992 66.06591797 C-1.24481827 65.3648291 -1.24671661 64.66374023 -1.24867249 63.94140625 C-1.25237628 61.62488614 -1.24168363 59.30867972 -1.23046875 56.9921875 C-1.22927683 55.38461341 -1.22882381 53.77703862 -1.2290802 52.16946411 C-1.22751613 48.80189652 -1.21923091 45.43443536 -1.20581055 42.06689453 C-1.1887935 37.74109988 -1.18499702 33.41542191 -1.18575573 29.0895977 C-1.18548443 25.77144244 -1.18001019 22.4533129 -1.17275429 19.13516617 C-1.16956322 17.539493 -1.1675992 15.94381691 -1.16686058 14.34814072 C-1.16470317 12.12380708 -1.15597289 9.89959969 -1.14526367 7.67529297 C-1.14145187 6.40748993 -1.13764008 5.13968689 -1.13371277 3.83346558 C-1 1 -1 1 0 0 Z " fill="#0A4B6B" transform="translate(9,158)"/>
<path d="M0 0 C0.30189929 9.50953786 0.53252063 19.0174157 0.67355824 28.53070831 C0.74127188 32.94895731 0.83299602 37.3639178 0.98071289 41.78027344 C1.12252366 46.04701158 1.19979569 50.31060015 1.23340416 54.57951355 C1.25733264 56.20340089 1.30407237 57.82712499 1.37449074 59.44966125 C1.58816007 64.57938239 1.56603084 69.07651864 0 74 C-3.92875477 77.84926203 -7.96530764 79.76954246 -13 82 C-15.21641926 83.21295076 -17.37731621 84.49894025 -19.55078125 85.7890625 C-21.80341899 87.06994179 -24.05736194 88.34852796 -26.3125 89.625 C-28.75623356 91.00991935 -31.19894918 92.39661216 -33.640625 93.78515625 C-34.55691429 94.306222 -34.55691429 94.306222 -35.49171448 94.83781433 C-39.70430886 97.24122597 -43.88287739 99.6970825 -48.046875 102.18359375 C-49.69562622 103.16368408 -49.69562622 103.16368408 -51.37768555 104.16357422 C-53.46492626 105.4080785 -55.54733299 106.66073441 -57.62426758 107.92236328 C-58.55392334 108.47520996 -59.4835791 109.02805664 -60.44140625 109.59765625 C-61.25295166 110.08758057 -62.06449707 110.57750488 -62.90063477 111.08227539 C-65 112 -65 112 -68 111 C-68 86.25 -68 61.5 -68 36 C-38.66447368 19.07565789 -38.66447368 19.07565789 -25.875 11.8125 C-22.57257199 9.92389101 -19.30812684 7.98458711 -16.0625 6 C-14.89086304 5.28904175 -14.89086304 5.28904175 -13.69555664 4.5637207 C-12.23240337 3.67197078 -10.77538175 2.77004934 -9.32592773 1.85620117 C-5.74669201 -0.3194127 -4.00356213 -1.35200113 0 0 Z " fill="#0B4B6B" transform="translate(496,159)"/>
<path d="M0 0 C3.82058067 0.58984852 6.6484572 1.70128712 10.0078125 3.59765625 C10.98161865 4.14429932 11.9554248 4.69094238 12.95874023 5.25415039 C14.52603882 6.14928345 14.52603882 6.14928345 16.125 7.0625 C17.21433838 7.67794678 18.30367676 8.29339355 19.42602539 8.92749023 C28.96038532 14.34185552 38.39543778 19.92326051 47.78759766 25.58032227 C48.84640137 26.21510498 49.90520508 26.8498877 50.99609375 27.50390625 C51.91575928 28.05892822 52.8354248 28.6139502 53.78295898 29.18579102 C58.10048006 31.6206016 62.56655522 33.78327761 67 36 C67 61.41 67 86.82 67 113 C62.04058165 111.34686055 58.13666239 109.48562239 53.75 106.8125 C52.2455674 105.91146393 50.7403019 105.01181763 49.234375 104.11328125 C48.40744141 103.61908691 47.58050781 103.12489258 46.72851562 102.61572266 C41.51421219 99.52801148 36.25357442 96.52022587 31 93.5 C23.29910474 89.0644586 15.60247083 84.6224066 7.9375 80.125 C7.23560547 79.71443359 6.53371094 79.30386719 5.81054688 78.88085938 C1.12073422 76.12073422 1.12073422 76.12073422 0 75 C-0.12938399 72.77744392 -0.18860185 70.55078737 -0.22119141 68.32470703 C-0.2326973 67.6271228 -0.24420319 66.92953857 -0.25605774 66.21081543 C-0.29288904 63.89319329 -0.32244983 61.57554355 -0.3515625 59.2578125 C-0.37466795 57.65216675 -0.39805818 56.04652507 -0.42172241 54.44088745 C-0.47025037 51.06983931 -0.5151679 47.69876671 -0.55761719 44.32763672 C-0.61236694 40.00413305 -0.67620844 35.68082048 -0.74279213 31.35748482 C-0.79285711 28.03930351 -0.83798745 24.72106909 -0.88163376 21.4027977 C-0.90321754 19.80875353 -0.92636762 18.21472979 -0.9510994 16.62073135 C-0.98495998 14.39187973 -1.0121594 12.16304354 -1.03759766 9.93408203 C-1.05456696 8.66468781 -1.07153625 7.39529358 -1.08901978 6.08743286 C-1 3 -1 3 0 0 Z " fill="#0B4B6B" transform="translate(186,158)"/>
<path d="M0 0 C0.495 0.99 0.495 0.99 1 2 C0.34 2 -0.32 2 -1 2 C-1.33 3.32 -1.66 4.64 -2 6 C-2.66 6 -3.32 6 -4 6 C-4.33 6.99 -4.66 7.98 -5 9 C-6.051875 9.0825 -7.10375 9.165 -8.1875 9.25 C-12.3538626 10.06961231 -13.82311572 11.32472903 -17 14 C-19.8125 14.75 -19.8125 14.75 -22 15 C-21.505 16.0725 -21.01 17.145 -20.5 18.25 C-19.11346089 21.25416808 -19 22.45934895 -19 26 C-18.360625 26.103125 -17.72125 26.20625 -17.0625 26.3125 C-16.381875 26.539375 -15.70125 26.76625 -15 27 C-14.67 27.99 -14.34 28.98 -14 30 C-18.76551013 28.62394084 -22.7248553 26.53221934 -26.875 23.875 C-27.46796875 23.50246094 -28.0609375 23.12992188 -28.671875 22.74609375 C-30.1181343 21.83635 -31.55958046 20.91896202 -33 20 C-30.60118705 17.3372384 -28.04339806 15.74368484 -24.921875 14.00390625 C-23.92542969 13.44509766 -22.92898437 12.88628906 -21.90234375 12.31054688 C-20.86207031 11.73369141 -19.82179688 11.15683594 -18.75 10.5625 C-16.70308942 9.41803239 -14.65621359 8.27350261 -12.609375 7.12890625 C-11.64451172 6.59152832 -10.67964844 6.05415039 -9.68554688 5.50048828 C-6.44390954 3.68929709 -3.21925723 1.85061821 0 0 Z " fill="#1FA1E1" transform="translate(130,86)"/>
<path d="M0 0 C0.33 0 0.66 0 1 0 C1 24.09 1 48.18 1 73 C-3.93050236 71.35649921 -6.89251684 69.93391654 -11 67 C-10.01 66.505 -10.01 66.505 -9 66 C-6.375 66.9375 -6.375 66.9375 -4 68 C-4 68.66 -4 69.32 -4 70 C-2.68 70.33 -1.36 70.66 0 71 C0 47.57 0 24.14 0 0 Z " fill="#194357" transform="translate(252,198)"/>
<path d="M0 0 C3.62387102 1.36859176 6.93833684 2.99181604 10.30859375 4.8984375 C11.30310547 5.46046875 12.29761719 6.0225 13.32226562 6.6015625 C14.35029297 7.18679687 15.37832031 7.77203125 16.4375 8.375 C17.46166016 8.9525 18.48582031 9.53 19.54101562 10.125 C24.48196555 12.92647064 29.33790471 15.75332644 34 19 C33.01 19.495 33.01 19.495 32 20 C30.30419922 19.37915039 30.30419922 19.37915039 28.3046875 18.34765625 C27.58925781 17.98349609 26.87382812 17.61933594 26.13671875 17.24414062 C25.01716797 16.65922852 25.01716797 16.65922852 23.875 16.0625 C23.12089844 15.67642578 22.36679687 15.29035156 21.58984375 14.89257812 C19.72290903 13.93547868 17.86097372 12.96863894 16 12 C16 11.34 16 10.68 16 10 C15.08476562 9.86722656 14.16953125 9.73445312 13.2265625 9.59765625 C12.03804688 9.42105469 10.84953125 9.24445313 9.625 9.0625 C8.44164062 8.88847656 7.25828125 8.71445313 6.0390625 8.53515625 C3 8 3 8 1 7 C0.59270772 4.67843403 0.25561323 2.3431213 0 0 Z " fill="#2E9BD3" transform="translate(264,125)"/>
<path d="M0 0 C0.33 0 0.66 0 1 0 C1 23.43 1 46.86 1 71 C-0.98 70.34 -2.96 69.68 -5 69 C-5.33 68.34 -5.66 67.68 -6 67 C-4.02 67.33 -2.04 67.66 0 68 C0 45.56 0 23.12 0 0 Z " fill="#1B4762" transform="translate(75,200)"/>
<path d="M0 0 C0.33 0 0.66 0 1 0 C1 22.44 1 44.88 1 68 C2.32 68.33 3.64 68.66 5 69 C2.525 69.99 2.525 69.99 0 71 C-1.1428342 67.5714974 -1.08185906 65.03175028 -1.02172852 61.41723633 C-1.01212097 60.75355545 -1.00251343 60.08987457 -0.99261475 59.40608215 C-0.95966059 57.21462271 -0.91931483 55.02336486 -0.87890625 52.83203125 C-0.85460162 51.31174936 -0.83075823 49.79146002 -0.80735779 48.27116394 C-0.74455095 44.27128624 -0.67547471 40.27154035 -0.60510254 36.27178955 C-0.53438836 32.1897176 -0.46958986 28.10755225 -0.40429688 24.02539062 C-0.27532837 16.01682366 -0.13973802 8.00838626 0 0 Z " fill="#194154" transform="translate(429,200)"/>
<path d="M0 0 C0.33 0.66 0.66 1.32 1 2 C0.34 2 -0.32 2 -1 2 C-1.33 3.32 -1.66 4.64 -2 6 C-2.66 6 -3.32 6 -4 6 C-4.33 6.99 -4.66 7.98 -5 9 C-6.051875 9.0825 -7.10375 9.165 -8.1875 9.25 C-12.36869196 10.07252957 -13.78131771 11.35902992 -17 14 C-20.3125 14.75 -20.3125 14.75 -23 15 C-23 15.66 -23 16.32 -23 17 C-24.65 17 -26.3 17 -28 17 C-23.97636711 13.555645 -19.7445334 11.02995007 -15.125 8.5 C-13.75248522 7.73979805 -12.38008847 6.97938296 -11.0078125 6.21875 C-10.34426758 5.85265625 -9.68072266 5.4865625 -8.99707031 5.109375 C-5.98175512 3.43436373 -2.99097002 1.71805066 0 0 Z " fill="#2B99CF" transform="translate(130,86)"/>
<path d="M0 0 C0.66 0.33 1.32 0.66 2 1 C1.01 1.33 0.02 1.66 -1 2 C-1 2.66 -1 3.32 -1 4 C-3.31 4.66 -5.62 5.32 -8 6 C-7.814375 6.639375 -7.62875 7.27875 -7.4375 7.9375 C-7.293125 8.618125 -7.14875 9.29875 -7 10 C-8 11 -8 11 -9.84765625 11.09765625 C-11.8984375 11.06510417 -13.94921875 11.03255208 -16 11 C-16.33 11.99 -16.66 12.98 -17 14 C-18.84765625 14.73046875 -18.84765625 14.73046875 -21.0625 15.1875 C-21.79597656 15.34605469 -22.52945313 15.50460938 -23.28515625 15.66796875 C-23.85105469 15.77753906 -24.41695312 15.88710937 -25 16 C-25 16.66 -25 17.32 -25 18 C-25.66 18 -26.32 18 -27 18 C-25.65978825 13.97936476 -23.92072234 13.4915267 -20.28515625 11.390625 C-19.42874794 10.89402374 -19.42874794 10.89402374 -18.55503845 10.38739014 C-17.34791966 9.69050659 -16.13816827 8.99816622 -14.92602539 8.31005859 C-13.06605489 7.25202219 -11.2173643 6.17605309 -9.36914062 5.09765625 C-8.19594356 4.42337998 -7.02213525 3.75016587 -5.84765625 3.078125 C-4.77523682 2.46356445 -3.70281738 1.84900391 -2.59790039 1.21582031 C-1.74059326 0.81459961 -0.88328613 0.41337891 0 0 Z " fill="#259CD5" transform="translate(213,140)"/>
<path d="M0 0 C-2.9088001 3.17011075 -5.76659726 5.17851202 -9.5625 7.1875 C-10.98755859 7.95126953 -10.98755859 7.95126953 -12.44140625 8.73046875 C-15 10 -15 10 -18 11 C-16.55462185 4.6162465 -16.55462185 4.6162465 -14.3125 2.125 C-9.80830353 -0.06623072 -4.93650247 -0.14959098 0 0 Z " fill="#1F9FE7" transform="translate(243,98)"/>
<path d="M0 0 C0.66 0.33 1.32 0.66 2 1 C-7.59158824 6.80331389 -17.2415386 12.48173292 -27 18 C-27 17.01 -27 16.02 -27 15 C-26.34 15 -25.68 15 -25 15 C-24.67 14.01 -24.34 13.02 -24 12 C-22.35 12 -20.7 12 -19 12 C-19 11.34 -19 10.68 -19 10 C-18.030625 9.7525 -17.06125 9.505 -16.0625 9.25 C-15.051875 8.8375 -14.04125 8.425 -13 8 C-12.03122943 5.96756452 -12.03122943 5.96756452 -12 4 C-10.948125 3.71125 -9.89625 3.4225 -8.8125 3.125 C-5.12231429 2.11369036 -5.12231429 2.11369036 -2.1875 0.8125 C-1.1046875 0.4103125 -1.1046875 0.4103125 0 0 Z " fill="#1D9BDD" transform="translate(486,160)"/>
<path d="M0 0 C4.12386878 2.49773756 4.12386878 2.49773756 5.375 5 C3.34948078 4.49362019 1.32688677 3.98687821 -0.6875 3.4375 C-2.78167366 2.88986956 -2.78167366 2.88986956 -5.625 3 C-5.295 2.67 -4.965 2.34 -4.625 2 C-5.945 2.33 -7.265 2.66 -8.625 3 C-8.625 3.66 -8.625 4.32 -8.625 5 C-12.95585971 6.29925791 -17.13974352 7.343621 -21.625 8 C-8.20065731 -4.03561759 -8.20065731 -4.03561759 0 0 Z " fill="#2D9CD8" transform="translate(434.625,120)"/>
<path d="M0 0 C-1.0975223 2.99324263 -1.67682892 3.84610901 -4.625 5.25 C-5.800625 5.62125 -5.800625 5.62125 -7 6 C-6.34 7.32 -5.68 8.64 -5 10 C-6.98 10.66 -8.96 11.32 -11 12 C-11 11.34 -11 10.68 -11 10 C-12.65 10 -14.3 10 -16 10 C-16 9.34 -16 8.68 -16 8 C-13.92111288 6.52313012 -11.86716626 5.18604262 -9.6875 3.875 C-9.09259766 3.50246094 -8.49769531 3.12992187 -7.88476562 2.74609375 C-3.38338484 0 -3.38338484 0 0 0 Z " fill="#219DE3" transform="translate(245,123)"/>
<path d="M0 0 C1.65 0 3.3 0 5 0 C0.8880247 3.5222421 -3.47841153 6.13336622 -8.1875 8.75 C-8.91130859 9.16121094 -9.63511719 9.57242188 -10.38085938 9.99609375 C-15.74497768 13 -15.74497768 13 -18 13 C-18 12.01 -18 11.02 -18 10 C-17.01 10 -16.02 10 -15 10 C-14.67 8.35 -14.34 6.7 -14 5 C-13.071875 5.226875 -12.14375 5.45375 -11.1875 5.6875 C-10.135625 5.790625 -9.08375 5.89375 -8 6 C-6.35405861 4.60411246 -6.35405861 4.60411246 -5 3 C-3.68 3 -2.36 3 -1 3 C-0.67 2.01 -0.34 1.02 0 0 Z " fill="#249CDF" transform="translate(370,124)"/>
<path d="M0 0 C9.05985221 4.89462355 18.03335842 9.9372789 27 15 C22.82366356 16.39211215 21.21039485 14.9535579 17.3125 13.0625 C16.13300781 12.49660156 14.95351562 11.93070313 13.73828125 11.34765625 C12.83464844 10.90292969 11.93101562 10.45820313 11 10 C11 9.34 11 8.68 11 8 C10.113125 7.7525 9.22625 7.505 8.3125 7.25 C4.86843744 5.95035375 2.66975197 4.51270773 0 2 C0 1.34 0 0.68 0 0 Z " fill="#045682" transform="translate(208,169)"/>
<path d="M0 0 C5.57729814 2.11423729 10.58420129 5.04413137 15.75 8 C17.20599609 8.81984375 17.20599609 8.81984375 18.69140625 9.65625 C19.61308594 10.1821875 20.53476563 10.708125 21.484375 11.25 C22.74846191 11.96929687 22.74846191 11.96929687 24.03808594 12.703125 C26 14 26 14 27 16 C22.0276578 14.50829734 17.58154261 12.39542583 13 10 C13 9.34 13 8.68 13 8 C12.05125 8.020625 11.1025 8.04125 10.125 8.0625 C7 8 7 8 5 7 C5 6.01 5 5.02 5 4 C4.01 4 3.02 4 2 4 C1.34 2.68 0.68 1.36 0 0 Z " fill="#2D9BD5" transform="translate(87,125)"/>
<path d="M0 0 C1.32 0.33 2.64 0.66 4 1 C1.7136988 2.36402043 -0.57821749 3.71634274 -2.875 5.0625 C-3.85146484 5.64741211 -3.85146484 5.64741211 -4.84765625 6.24414062 C-6.53065725 7.22444533 -8.26296199 8.11898432 -10 9 C-10.66 8.67 -11.32 8.34 -12 8 C-12 5.69 -12 3.38 -12 1 C-10.02 1 -8.04 1 -6 1 C-6 1.66 -6 2.32 -6 3 C-4.02 2.67 -2.04 2.34 0 2 C0 1.34 0 0.68 0 0 Z " fill="#229DE0" transform="translate(220,109)"/>
<path d="M0 0 C0 0.99 0 1.98 0 3 C-0.95261719 3.54269531 -1.90523437 4.08539063 -2.88671875 4.64453125 C-4.15366244 5.36715839 -5.42058859 6.08981627 -6.6875 6.8125 C-7.31333984 7.16892578 -7.93917969 7.52535156 -8.58398438 7.89257812 C-9.19951172 8.24384766 -9.81503906 8.59511719 -10.44921875 8.95703125 C-11.05531982 9.30290283 -11.6614209 9.64877441 -12.28588867 10.00512695 C-13.79969081 10.88374021 -15.29231633 11.79862245 -16.78125 12.71875 C-19.19768627 14.11415686 -21.25247691 14.6074967 -24 15 C-21.64365561 12.40094202 -19.16182838 10.80030327 -16.11328125 9.08203125 C-15.17548828 8.55029297 -14.23769531 8.01855469 -13.27148438 7.47070312 C-12.29501953 6.92349609 -11.31855469 6.37628906 -10.3125 5.8125 C-8.83040039 4.97428711 -8.83040039 4.97428711 -7.31835938 4.11914062 C-4.88134237 2.74169623 -2.44185377 1.36884596 0 0 Z " fill="#18445B" transform="translate(130,264)"/>
<path d="M0 0 C5.31027254 1.46032495 9.46330032 3.98320986 14 7 C12.68 7.33 11.36 7.66 10 8 C10 7.34 10 6.68 10 6 C9.34 6 8.68 6 8 6 C7.67 6.66 7.34 7.32 7 8 C4 8 4 8 2 7 C2.33 5.68 2.66 4.36 3 3 C1.35 3.66 -0.3 4.32 -2 5 C-2 4.01 -2 3.02 -2 2 C-1.34 2 -0.68 2 0 2 C0 1.34 0 0.68 0 0 Z " fill="#239EDF" transform="translate(284,35)"/>
<path d="M0 0 C-0.24609375 1.9140625 -0.24609375 1.9140625 -1 4 C-2.78515625 4.8359375 -2.78515625 4.8359375 -5.0625 5.375 C-9.61511862 6.67057827 -12.5446594 8.68986114 -16.078125 11.79296875 C-18.5120917 13.32161857 -20.17908202 13.21886433 -23 13 C-18.8880247 9.4777579 -14.52158847 6.86663378 -9.8125 4.25 C-9.08869141 3.83878906 -8.36488281 3.42757813 -7.61914062 3.00390625 C-2.25502232 0 -2.25502232 0 0 0 Z " fill="#18465E" transform="translate(309,264)"/>
<path d="M0 0 C-5.86516854 4.88764045 -5.86516854 4.88764045 -9 6 C-12.49517137 5.66175761 -15.0828301 3.86374744 -18 2 C-15.13109771 0.56554886 -12.26195706 0.56926882 -9.09375 0.28125 C-2.53333333 -0.6 -2.53333333 -0.6 0 0 Z " fill="#22A0E3" transform="translate(174,138)"/>
<path d="M0 0 C1 3 1 3 0 6 C-2.1796875 6.87890625 -2.1796875 6.87890625 -4.875 7.5625 C-8.18029394 8.41532366 -10.10972477 9.07314984 -13 11 C-14.32 10.67 -15.64 10.34 -17 10 C-8.585 5.05 -8.585 5.05 0 0 Z " fill="#289CD9" transform="translate(182,56)"/>
<path d="M0 0 C1.60517097 0.08733576 3.20921662 0.19552224 4.8125 0.3125 C6.15248047 0.39951172 6.15248047 0.39951172 7.51953125 0.48828125 C10.33413616 1.06893203 11.28620517 1.7335482 13 4 C13.12375 4.680625 13.2475 5.36125 13.375 6.0625 C13.58125 6.701875 13.7875 7.34125 14 8 C16.49034386 9.29660434 16.49034386 9.29660434 19 10 C18.01 10.495 18.01 10.495 17 11 C15.21240234 10.21142578 15.21240234 10.21142578 13.0859375 8.9453125 C12.32539063 8.49542969 11.56484375 8.04554688 10.78125 7.58203125 C9.9871875 7.10121094 9.193125 6.62039062 8.375 6.125 C7.57320313 5.65191406 6.77140625 5.17882812 5.9453125 4.69140625 C1.61571608 2.10690226 1.61571608 2.10690226 0 1 C0 0.67 0 0.34 0 0 Z " fill="#299BD8" transform="translate(317,128)"/>
<path d="M0 0 C6.47713607 3.46479154 12.81642857 7.03318059 19 11 C18.67 11.99 18.34 12.98 18 14 C16.68 13.67 15.36 13.34 14 13 C14.66 12.67 15.32 12.34 16 12 C16 11.34 16 10.68 16 10 C15.42121094 9.87753906 14.84242188 9.75507813 14.24609375 9.62890625 C11.9473274 8.98525167 10.1469837 8.08912565 8.0625 6.9375 C4.89011082 5.29497327 2.6366118 4.54542352 -1 5 C-0.67 3.35 -0.34 1.7 0 0 Z " fill="#14475B" transform="translate(388,272)"/>
<path d="M0 0 C-11.23046875 6.73828125 -11.23046875 6.73828125 -13.18896484 7.90478516 C-14.76565016 8.85827805 -16.31698919 9.85343774 -17.86328125 10.85546875 C-18.56839844 11.23316406 -19.27351563 11.61085937 -20 12 C-20.66 11.67 -21.32 11.34 -22 11 C-21.01 10.67 -20.02 10.34 -19 10 C-19 9.34 -19 8.68 -19 8 C-18.01 8 -17.02 8 -16 8 C-16 7.34 -16 6.68 -16 6 C-14.8553125 5.62875 -14.8553125 5.62875 -13.6875 5.25 C-10.90254368 4.22856666 -10.90254368 4.22856666 -9.5625 1.9375 C-8 0 -8 0 -4.9375 -0.8125 C-2 -1 -2 -1 0 0 Z " fill="#309CD5" transform="translate(118,171)"/>
<path d="M0 0 C0 0.66 0 1.32 0 2 C-0.99 2.495 -0.99 2.495 -2 3 C-2.99 4.485 -2.99 4.485 -4 6 C-7.125 6.1875 -7.125 6.1875 -10 6 C-10 6.66 -10 7.32 -10 8 C-13.6678852 9.96189209 -16.87248551 11.39301257 -21 12 C-19.58323053 9.16646105 -17.66123174 8.59023903 -14.875 7.125 C-11.52424254 5.34722491 -8.20161365 3.55724487 -4.9375 1.625 C-2 0 -2 0 0 0 Z " fill="#2E9BD3" transform="translate(158,71)"/>
<path d="M0 0 C-0.33 1.32 -0.66 2.64 -1 4 C-0.01 4.33 0.98 4.66 2 5 C2 5.66 2 6.32 2 7 C-2.8274799 5.58707905 -6.7162359 3.57025846 -11 1 C-11 0.67 -11 0.34 -11 0 C-7.01803543 -1.05404945 -4.01804691 -0.84098656 0 0 Z " fill="#229EE1" transform="translate(395,169)"/>
<path d="M0 0 C5.96652354 1.57013777 10.82909025 4.75029782 16 8 C15.01 8.495 15.01 8.495 14 9 C12.23046875 8.40625 12.23046875 8.40625 10.1875 7.5 C6.73750806 6.11120543 4.6246153 5.75403849 1 7 C0.67 6.34 0.34 5.68 0 5 C0.66 4.67 1.32 4.34 2 4 C1.34 2.68 0.68 1.36 0 0 Z " fill="#299CDA" transform="translate(298,145)"/>
<path d="M0 0 C4.73474097 1.6996506 8.96167111 4.13659027 13.3125 6.625 C14.05306641 7.04523437 14.79363281 7.46546875 15.55664062 7.8984375 C17.37269011 8.92948495 19.18656533 9.96436046 21 11 C19.68 11.33 18.36 11.66 17 12 C17 11.34 17 10.68 17 10 C15.35 9.67 13.7 9.34 12 9 C12 8.34 12 7.68 12 7 C10.39125 6.814375 10.39125 6.814375 8.75 6.625 C3.36363636 5.72727273 3.36363636 5.72727273 1 4 C0.25 1.875 0.25 1.875 0 0 Z " fill="#2E9CD4" transform="translate(319,55)"/>
<path d="M0 0 C3.65319219 1.4595496 6.88055546 3.3329723 10.1796875 5.4453125 C10.77265625 5.81785156 11.365625 6.19039062 11.9765625 6.57421875 C13.4228218 7.4839625 14.86426796 8.40135048 16.3046875 9.3203125 C13.3046875 10.3203125 13.3046875 10.3203125 11.47265625 9.4296875 C10.81910156 8.98109375 10.16554688 8.5325 9.4921875 8.0703125 C8.78578125 7.60882813 8.079375 7.14734375 7.3515625 6.671875 C6.67609375 6.22585937 6.000625 5.77984375 5.3046875 5.3203125 C0.47812377 2.36527348 -2.15475999 2.10139095 -7.6953125 3.3203125 C-3.6410938 -0.91818887 -3.6410938 -0.91818887 0 0 Z " fill="#1A455D" transform="translate(342.6953125,245.6796875)"/>
<path d="M0 0 C0.99 0.33 1.98 0.66 3 1 C-3.08194628 5.27499123 -9.27746528 8.82819865 -16 12 C-15.67 10.68 -15.34 9.36 -15 8 C-13.35 8 -11.7 8 -10 8 C-10 7.34 -10 6.68 -10 6 C-9.01 6 -8.02 6 -7 6 C-7 5.34 -7 4.68 -7 4 C-6.01 4 -5.02 4 -4 4 C-4 3.34 -4 2.68 -4 2 C-2.68 2 -1.36 2 0 2 C0 1.34 0 0.68 0 0 Z " fill="#2E99D4" transform="translate(192,125)"/>
<path d="M0 0 C2.38376902 0.95350761 4.55399824 2.09760561 6.78125 3.375 C7.58046875 3.83003906 8.3796875 4.28507812 9.203125 4.75390625 C9.80640625 5.10324219 10.4096875 5.45257813 11.03125 5.8125 C10.04125 6.1425 9.05125 6.4725 8.03125 6.8125 C6.9175 6.1009375 6.9175 6.1009375 5.78125 5.375 C2.29206791 3.39251017 -0.01151471 3.44608932 -3.96875 3.8125 C-4.95875 4.4725 -5.94875 5.1325 -6.96875 5.8125 C-7.95875 5.4825 -8.94875 5.1525 -9.96875 4.8125 C-8.72930724 3.94308506 -7.47667941 3.09244543 -6.21875 2.25 C-5.52265625 1.77433594 -4.8265625 1.29867188 -4.109375 0.80859375 C-1.96875 -0.1875 -1.96875 -0.1875 0 0 Z " fill="#2D9ED0" transform="translate(252.96875,16.1875)"/>
<path d="M0 0 C-2.61778794 2.9552728 -5.67583335 4.75832727 -9.0625 6.75 C-10.12597656 7.38421875 -11.18945312 8.0184375 -12.28515625 8.671875 C-13.18105469 9.11015625 -14.07695312 9.5484375 -15 10 C-15.66 9.67 -16.32 9.34 -17 9 C-16.4225 8.66226562 -15.845 8.32453125 -15.25 7.9765625 C-14.5075 7.53054688 -13.765 7.08453125 -13 6.625 C-12.2575 6.18414062 -11.515 5.74328125 -10.75 5.2890625 C-10.1725 4.86367188 -9.595 4.43828125 -9 4 C-9 3.34 -9 2.68 -9 2 C-5.86501708 0.14223235 -3.62528568 -0.20140476 0 0 Z " fill="#15455E" transform="translate(354,314)"/>
<path d="M0 0 C0 0.66 0 1.32 0 2 C-1.28913487 2.67154933 -2.58140204 3.33708859 -3.875 4 C-4.59429687 4.37125 -5.31359375 4.7425 -6.0546875 5.125 C-8 6 -8 6 -10 6 C-10 6.66 -10 7.32 -10 8 C-13 10 -13 10 -17 10 C-17 10.66 -17 11.32 -17 12 C-17.66 12 -18.32 12 -19 12 C-17.86351798 8.59055395 -17.46011714 8.39306229 -14.47265625 6.73828125 C-13.40821289 6.14370117 -13.40821289 6.14370117 -12.32226562 5.53710938 C-11.20368164 4.93092773 -11.20368164 4.93092773 -10.0625 4.3125 C-9.32064453 3.89677734 -8.57878906 3.48105469 -7.81445312 3.05273438 C-2.28544489 0 -2.28544489 0 0 0 Z " fill="#16455F" transform="translate(335,249)"/>
<path d="M0 0 C0 0.99 0 1.98 0 3 C-4.9910037 7.54042698 -10.4519108 9.80943833 -17 11 C-14.20957375 7.71165383 -10.52671824 5.87264311 -6.8125 3.8125 C-6.15830078 3.44447266 -5.50410156 3.07644531 -4.83007812 2.69726562 C-3.22253039 1.7937534 -1.61159349 0.8962759 0 0 Z " fill="#045986" transform="translate(466,173)"/>
<path d="M0 0 C0.66 0.33 1.32 0.66 2 1 C1.02596117 2.02530403 0.0173873 3.01769502 -1 4 C-1.721875 4.70125 -2.44375 5.4025 -3.1875 6.125 C-6.90763558 8.60509038 -9.57180666 8.6997835 -14 9 C-9.80022081 5.3421278 -5.12798061 2.20634136 0 0 Z " fill="#2A9AD2" transform="translate(390,140)"/>
<path d="M0 0 C5.54050113 0.56825653 10.03715966 2.62886517 15 5 C14.67 5.99 14.34 6.98 14 8 C9.02790438 6.23570801 4.56561939 3.6060834 0 1 C0 0.67 0 0.34 0 0 Z " fill="#144861" transform="translate(197,239)"/>
<path d="M0 0 C0 0.66 0 1.32 0 2 C-0.99 2 -1.98 2 -3 2 C-3 4.31 -3 6.62 -3 9 C-5.31 8.34 -7.62 7.68 -10 7 C-8.60449526 2.81348579 -4.64858615 0 0 0 Z " fill="#2292CE" transform="translate(19,151)"/>
<path d="M0 0 C0 0.66 0 1.32 0 2 C-1.28913487 2.67154933 -2.58140204 3.33708859 -3.875 4 C-4.59429687 4.37125 -5.31359375 4.7425 -6.0546875 5.125 C-8 6 -8 6 -10 6 C-10.33 6.99 -10.66 7.98 -11 9 C-12.84765625 9.73046875 -12.84765625 9.73046875 -15.0625 10.1875 C-15.79597656 10.34605469 -16.52945313 10.50460937 -17.28515625 10.66796875 C-17.85105469 10.77753906 -18.41695312 10.88710938 -19 11 C-16.22312644 7.75177521 -12.60938618 5.87816944 -8.9375 3.8125 C-8.30005859 3.44447266 -7.66261719 3.07644531 -7.00585938 2.69726562 C-2.25687036 0 -2.25687036 0 0 0 Z " fill="#174458" transform="translate(151,253)"/>
<path d="M0 0 C0.66 0.33 1.32 0.66 2 1 C-0.13113166 4.19669749 -0.85594212 4.61467025 -4.25 6 C-7.07413174 7.17785849 -9.72249954 8.3809543 -12.4375 9.8125 C-13.283125 10.204375 -14.12875 10.59625 -15 11 C-15.66 10.67 -16.32 10.34 -17 10 C-14.21605957 8.29949343 -11.42172475 6.61688375 -8.625 4.9375 C-7.8309375 4.45216797 -7.036875 3.96683594 -6.21875 3.46679688 C-5.45820313 3.01240234 -4.69765625 2.55800781 -3.9140625 2.08984375 C-2.8614624 1.45357056 -2.8614624 1.45357056 -1.78759766 0.80444336 C-0.90273682 0.4062439 -0.90273682 0.4062439 0 0 Z " fill="#2E95CA" transform="translate(36,140)"/>
<path d="M0 0 C4.75 1.875 4.75 1.875 7 3 C6.67 4.65 6.34 6.3 6 8 C4.35 7.67 2.7 7.34 1 7 C0.67 4.69 0.34 2.38 0 0 Z " fill="#229EDF" transform="translate(264,125)"/>
<path d="M0 0 C0.99 0 1.98 0 3 0 C5 2 5 2 6 5 C5.67 5.99 5.34 6.98 5 8 C1.40608886 6.66511872 -1.75490696 5.03977277 -5 3 C-4.34 2.67 -3.68 2.34 -3 2 C-0.375 2.9375 -0.375 2.9375 2 4 C2 3.34 2 2.68 2 2 C1.34 2 0.68 2 0 2 C0 1.34 0 0.68 0 0 Z " fill="#269DDD" transform="translate(128,118)"/>
<path d="M0 0 C0 0.66 0 1.32 0 2 C-2.76549907 4.4582214 -5.5762807 5.68318489 -9 7 C-9.99 7.66 -10.98 8.32 -12 9 C-14.1875 8.625 -14.1875 8.625 -16 8 C-13.71125827 6.66141476 -11.41930344 5.32898986 -9.125 4 C-8.47402344 3.6184375 -7.82304687 3.236875 -7.15234375 2.84375 C-2.2265625 0 -2.2265625 0 0 0 Z " fill="#2F9AD2" transform="translate(200,47)"/>
<path d="M0 0 C0 0.66 0 1.32 0 2 C-1.74122549 3.03572896 -3.49336595 4.0531252 -5.25 5.0625 C-6.71179688 5.91521484 -6.71179688 5.91521484 -8.203125 6.78515625 C-11 8 -11 8 -13.359375 7.68359375 C-13.90078125 7.45800781 -14.4421875 7.23242188 -15 7 C-13.06730041 5.82539808 -11.12866687 4.66055528 -9.1875 3.5 C-8.10855469 2.8503125 -7.02960938 2.200625 -5.91796875 1.53125 C-3 0 -3 0 0 0 Z " fill="#045986" transform="translate(495,158)"/>
<path d="M0 0 C1.77178053 0.956581 3.54239076 1.91532988 5.3125 2.875 C6.79169922 3.67550781 6.79169922 3.67550781 8.30078125 4.4921875 C11 6 11 6 14 8 C14 8.66 14 9.32 14 10 C12.35 10.66 10.7 11.32 9 12 C9 11.278125 9 10.55625 9 9.8125 C7.61282735 5.91107693 5.25665032 5.0242384 1.71484375 3.11328125 C1.14894531 2.74589844 0.58304688 2.37851563 0 2 C0 1.34 0 0.68 0 0 Z " fill="#2E9ECC" transform="translate(128,148)"/>
<path d="M0 0 C5.57264628 2.6868116 10.81117468 5.63278357 16 9 C15.01 9.33 14.02 9.66 13 10 C11.29883624 9.05988318 9.63495707 8.05104383 8 7 C7.0925 6.67 6.185 6.34 5.25 6 C4.13625 5.505 4.13625 5.505 3 5 C2.67 4.01 2.34 3.02 2 2 C1.34 2 0.68 2 0 2 C0 1.34 0 0.68 0 0 Z " fill="#035786" transform="translate(43,176)"/>
<path d="M0 0 C5.6586936 0.43528412 10.4465155 2.68314602 15 6 C15.33 6.99 15.66 7.98 16 9 C12.20950293 7.57250019 8.72877544 5.83763458 5.1875 3.875 C4.21167969 3.33617187 3.23585937 2.79734375 2.23046875 2.2421875 C1.49441406 1.83226562 0.75835937 1.42234375 0 1 C0 0.67 0 0.34 0 0 Z " fill="#1F99D8" transform="translate(205,167)"/>
<path d="M0 0 C2.97 0 5.94 0 9 0 C-0.1 7 -0.1 7 -3 7 C-2.67 6.01 -2.34 5.02 -2 4 C-1.34 3.67 -0.68 3.34 0 3 C0 2.01 0 1.02 0 0 Z " fill="#259FDC" transform="translate(285,171)"/>
<path d="M0 0 C0.33 0.66 0.66 1.32 1 2 C0.34 2 -0.32 2 -1 2 C-1.33 3.32 -1.66 4.64 -2 6 C-2.66 6 -3.32 6 -4 6 C-4.33 6.99 -4.66 7.98 -5 9 C-5.99 9 -6.98 9 -8 9 C-7.9375 6.75 -7.9375 6.75 -7 4 C-4.7691525 2.32150176 -2.52594094 1.24000737 0 0 Z " fill="#259BD9" transform="translate(130,86)"/>
<path d="M0 0 C0.99 0.33 1.98 0.66 3 1 C3 1.66 3 2.32 3 3 C3.7425 3.144375 4.485 3.28875 5.25 3.4375 C7.52027739 3.90187492 9.75759479 4.41863569 12 5 C12.33 6.32 12.66 7.64 13 9 C8.33138019 7.39516194 3.90741833 5.02509806 0 2 C0 1.34 0 0.68 0 0 Z " fill="#15425D" transform="translate(9,231)"/>
<path d="M0 0 C1.65 0.33 3.3 0.66 5 1 C1.20182235 4.22269618 -2.57391854 6.74520378 -7 9 C-7.66 8.67 -8.32 8.34 -9 8 C-9 7.01 -9 6.02 -9 5 C-8.43410156 4.89042969 -7.86820312 4.78085938 -7.28515625 4.66796875 C-6.18494141 4.43013672 -6.18494141 4.43013672 -5.0625 4.1875 C-4.33160156 4.03667969 -3.60070312 3.88585937 -2.84765625 3.73046875 C-2.23792969 3.48941406 -1.62820312 3.24835938 -1 3 C-0.67 2.01 -0.34 1.02 0 0 Z " fill="#2C9BD5" transform="translate(91,182)"/>
<path d="M0 0 C1.77395508 0.42466497 3.54410631 0.8652409 5.3125 1.3125 C6.29863281 1.55613281 7.28476563 1.79976562 8.30078125 2.05078125 C11.01647874 3.00579499 12.28403325 3.72180523 14 6 C14 6.66 14 7.32 14 8 C8.76481294 6.56032356 4.36973991 4.18303389 0 1 C0 0.67 0 0.34 0 0 Z " fill="#1E99D8" transform="translate(58,184)"/>
<path d="M0 0 C3.59391114 1.33488128 6.75490696 2.96022723 10 5 C9.67 5.99 9.34 6.98 9 8 C7.35 8 5.7 8 4 8 C3.67 6.02 3.34 4.04 3 2 C2.01 1.67 1.02 1.34 0 1 C0 0.67 0 0.34 0 0 Z " fill="#2692C6" transform="translate(486,151)"/>
<path d="M0 0 C3.7910119 1.44950455 7.3874638 3.15172566 11 5 C8 6 8 6 4 6 C4 6.66 4 7.32 4 8 C3.34 8 2.68 8 2 8 C2 7.34 2 6.68 2 6 C1.34 5.67 0.68 5.34 0 5 C0.66 4.34 1.32 3.68 2 3 C1.34 2.67 0.68 2.34 0 2 C0 1.34 0 0.68 0 0 Z " fill="#134459" transform="translate(176,254)"/>
<path d="M0 0 C3.3 1.65 6.6 3.3 10 5 C5.80104745 6.04973814 3.20594226 5.72795155 -1 5 C-0.67 3.35 -0.34 1.7 0 0 Z " fill="#06517B" transform="translate(60,186)"/>
<path d="M0 0 C0.66 0.33 1.32 0.66 2 1 C1.34 2.32 0.68 3.64 0 5 C1.65 5 3.3 5 5 5 C5 6.32 5 7.64 5 9 C1.06326356 7.68775452 -1.22719294 6.08089673 -4 3 C-2.68 2.01 -1.36 1.02 0 0 Z " fill="#339ACF" transform="translate(367,153)"/>
<path d="M0 0 C0.66 0.33 1.32 0.66 2 1 C0.70519111 3.42776667 -0.35838519 4.76967674 -2.98046875 5.7109375 C-4.9738726 6.19782198 -6.98658625 6.60391861 -9 7 C-9 7.66 -9 8.32 -9 9 C-9.66 9 -10.32 9 -11 9 C-9.73948004 5.21844011 -8.43553394 4.74381633 -5.0625 2.75 C-4.16660156 2.20859375 -3.27070313 1.6671875 -2.34765625 1.109375 C-1.57292969 0.74328125 -0.79820312 0.3771875 0 0 Z " fill="#2F95C9" transform="translate(197,149)"/>
<path d="M0 0 C-0.66 1.32 -1.32 2.64 -2 4 C-2.99 3.67 -3.98 3.34 -5 3 C-5.99 3.495 -5.99 3.495 -7 4 C-7 3.34 -7 2.68 -7 2 C-8.65 2.33 -10.3 2.66 -12 3 C-10.10827237 0.58279247 -9.04144125 0.01036031 -6 -0.75 C-3 -1 -3 -1 0 0 Z " fill="#1E9BE2" transform="translate(144,83)"/>
<path d="M0 0 C0.33 0.66 0.66 1.32 1 2 C-0.0725 1.938125 -1.145 1.87625 -2.25 1.8125 C-6.29327453 2.01466373 -7.03645863 2.53038219 -10 5 C-12.75 5.6875 -12.75 5.6875 -15 6 C-11.22500867 1.55883373 -5.84027962 -2.40482102 0 0 Z " fill="#15485D" transform="translate(166,247)"/>
<path d="M0 0 C1.65 0 3.3 0 5 0 C5.66 1.32 6.32 2.64 7 4 C8.32 4 9.64 4 11 4 C11 4.66 11 5.32 11 6 C11.99 6.33 12.98 6.66 14 7 C13.01 7.495 13.01 7.495 12 8 C9.1796875 6.6015625 9.1796875 6.6015625 5.875 4.625 C4.77929688 3.97789063 3.68359375 3.33078125 2.5546875 2.6640625 C1.71164062 2.11492187 0.86859375 1.56578125 0 1 C0 0.67 0 0.34 0 0 Z " fill="#2A9ED4" transform="translate(266,99)"/>
<path d="M0 0 C1.65 0 3.3 0 5 0 C1.20182235 3.22269618 -2.57391854 5.74520378 -7 8 C-7.66 7.67 -8.32 7.34 -9 7 C-7.25 5 -7.25 5 -5 3 C-3.68 3 -2.36 3 -1 3 C-0.67 2.01 -0.34 1.02 0 0 Z " fill="#3098D2" transform="translate(370,124)"/>
<path d="M0 0 C1.32 0.33 2.64 0.66 4 1 C-2.35773585 5.03471698 -2.35773585 5.03471698 -5.3125 4.875 C-7 4 -7 4 -9 2 C-7.824375 2.0309375 -7.824375 2.0309375 -6.625 2.0625 C-4.01885039 2.18684063 -4.01885039 2.18684063 -2 1 C-1.34 1.33 -0.68 1.66 0 2 C0 1.34 0 0.68 0 0 Z " fill="#3496D5" transform="translate(168,139)"/>
<path d="M0 0 C0.66 0.33 1.32 0.66 2 1 C-0.37409996 3.62400522 -2.81364829 5.44568209 -6 7 C-8.16015625 6.578125 -8.16015625 6.578125 -10 6 C-8.3811004 4.96951963 -6.75467511 3.95085322 -5.125 2.9375 C-4.22007812 2.36902344 -3.31515625 1.80054688 -2.3828125 1.21484375 C-1.20332031 0.61349609 -1.20332031 0.61349609 0 0 Z " fill="#035683" transform="translate(478,166)"/>
<path d="M0 0 C2.91517292 1.07401108 4.77810176 1.77810176 7 4 C4.1875 5.125 4.1875 5.125 1 6 C0.01 5.34 -0.98 4.68 -2 4 C-1.34 2.68 -0.68 1.36 0 0 Z " fill="#25A0DD" transform="translate(80,121)"/>
<path d="M0 0 C3.3 1.65 6.6 3.3 10 5 C6 7 6 7 3.75 6.625 C3.1725 6.41875 2.595 6.2125 2 6 C2.66 5.67 3.32 5.34 4 5 C4 4.34 4 3.68 4 3 C2.68 2.67 1.36 2.34 0 2 C0 1.34 0 0.68 0 0 Z " fill="#2A9AD8" transform="translate(344,69)"/>
<path d="M0 0 C3.3 1.65 6.6 3.3 10 5 C5.23374833 6.19156292 4.12120649 5.3415946 0 3 C0 2.01 0 1.02 0 0 Z " fill="#164159" transform="translate(360,256)"/>
<path d="M0 0 C2.25 0.25 2.25 0.25 4 1 C4 1.99 4 2.98 4 4 C0.71023192 5.09658936 -0.71303767 4.79953138 -4 4 C-2.25 1.9375 -2.25 1.9375 0 0 Z " fill="#24A3DC" transform="translate(58,127)"/>
<path d="M0 0 C2.475 0.99 2.475 0.99 5 2 C5 3.98 5 5.96 5 8 C4.01 7.67 3.02 7.34 2 7 C0.8125 3.4375 0.8125 3.4375 0 0 Z " fill="#105B84" transform="translate(71,192)"/>
<path d="M0 0 C0.66 0.33 1.32 0.66 2 1 C-0.53351206 4.80026809 -2.74894043 5.50840015 -7 7 C-7.99 6.67 -8.98 6.34 -10 6 C-8.3811004 4.96951963 -6.75467511 3.95085322 -5.125 2.9375 C-4.22007812 2.36902344 -3.31515625 1.80054688 -2.3828125 1.21484375 C-1.20332031 0.61349609 -1.20332031 0.61349609 0 0 Z " fill="#2F9ACF" transform="translate(402,133)"/>
<path d="M0 0 C2.64 0.33 5.28 0.66 8 1 C8.33 2.32 8.66 3.64 9 5 C5.22454612 3.90931332 2.52956528 3.0916909 0 0 Z " fill="#2096D6" transform="translate(238,186)"/>
<path d="M0 0 C4.03321763 1.21934486 7.54269479 2.55954927 11 5 C11 5.66 11 6.32 11 7 C6.89188572 5.55007731 3.53144334 3.54592427 0 1 C0 0.67 0 0.34 0 0 Z " fill="#1E98D5" transform="translate(31,168)"/>
<path d="M0 0 C1.65 0 3.3 0 5 0 C2.22719294 3.08089673 -0.06326356 4.68775452 -4 6 C-4.33 5.01 -4.66 4.02 -5 3 C-4.360625 2.87625 -3.72125 2.7525 -3.0625 2.625 C-2.0415625 2.315625 -2.0415625 2.315625 -1 2 C-0.67 1.34 -0.34 0.68 0 0 Z " fill="#29A0D7" transform="translate(238,98)"/>
<path d="M0 0 C6.4 0.49230769 6.4 0.49230769 9.4375 3.0625 C10.2109375 4.0215625 10.2109375 4.0215625 11 5 C7.80389448 5 6.58282374 4.45328458 3.8125 3 C3.09707031 2.62875 2.38164062 2.2575 1.64453125 1.875 C1.10183594 1.58625 0.55914062 1.2975 0 1 C0 0.67 0 0.34 0 0 Z " fill="#3198D2" transform="translate(253,92)"/>
<path d="M0 0 C3.26954202 0.56371414 4.82575883 1.49962266 7 4 C5.02 4.33 3.04 4.66 1 5 C0.67 3.35 0.34 1.7 0 0 Z " fill="#259EDF" transform="translate(308,49)"/>
<path d="M0 0 C0.99 0.33 1.98 0.66 3 1 C3 1.99 3 2.98 3 4 C1.1875 4.625 1.1875 4.625 -1 5 C-1.99 4.34 -2.98 3.68 -4 3 C-2.1875 1.4375 -2.1875 1.4375 0 0 Z " fill="#22A2DF" transform="translate(412,127)"/>
<path d="M0 0 C3.59391114 1.33488128 6.75490696 2.96022723 10 5 C8 6 8 6 6.0546875 5.44140625 C5.33539063 5.15136719 4.61609375 4.86132812 3.875 4.5625 C3.15054687 4.27503906 2.42609375 3.98757812 1.6796875 3.69140625 C0.84824219 3.34916016 0.84824219 3.34916016 0 3 C0 2.01 0 1.02 0 0 Z " fill="#3099D1" transform="translate(368,83)"/>
<path d="M0 0 C1.98 0 3.96 0 6 0 C3.14693203 2.32472205 0.45925163 3.7508258 -3 5 C-3 4.34 -3 3.68 -3 3 C-2.34 3 -1.68 3 -1 3 C-0.67 2.01 -0.34 1.02 0 0 Z " fill="#1F99DC" transform="translate(438,186)"/>
<path d="M0 0 C1.98 0 3.96 0 6 0 C0.85714286 4.42857143 0.85714286 4.42857143 -3 5 C-2.67 4.34 -2.34 3.68 -2 3 C-1.34 3 -0.68 3 0 3 C0 2.01 0 1.02 0 0 Z " fill="#16435C" transform="translate(371,301)"/>
<path d="M0 0 C0 0.99 0 1.98 0 3 C-2.91517292 1.92598892 -4.77810176 1.22189824 -7 -1 C-3.51418144 -2.2020064 -3.32007656 -2.21338437 0 0 Z " fill="#11435D" transform="translate(34,244)"/>
<path d="M0 0 C0 0.66 0 1.32 0 2 C-2.30276574 4.21747812 -3.52480092 4.96760006 -6.75 5.1875 C-7.86375 5.0946875 -7.86375 5.0946875 -9 5 C-6.45523312 2.20075644 -3.92372883 0 0 0 Z " fill="#3298CF" transform="translate(47,135)"/>
<path d="M0 0 C0.33 1.32 0.66 2.64 1 4 C1.66 4 2.32 4 3 4 C3.33 4.99 3.66 5.98 4 7 C0.62496331 5.8141763 -1.64722731 4.72426311 -4 2 C-3.01 2 -2.02 2 -1 2 C-0.67 1.34 -0.34 0.68 0 0 Z " fill="#2C9BD6" transform="translate(148,130)"/>
<path d="M0 0 C1.98 0 3.96 0 6 0 C6.33 0.66 6.66 1.32 7 2 C5.66666667 2.66666667 4.33333333 3.33333333 3 4 C2.01 3.67 1.02 3.34 0 3 C0 2.01 0 1.02 0 0 Z " fill="#19A0E3" transform="translate(350,75)"/>
<path d="M0 0 C4.10801767 1.18676066 5.89448334 1.89448334 9 5 C4.545 4.01 4.545 4.01 0 3 C0 2.01 0 1.02 0 0 Z " fill="#3797D1" transform="translate(298,43)"/>
<path d="M0 0 C1.32 0.33 2.64 0.66 4 1 C4.33 2.32 4.66 3.64 5 5 C4.01 5.33 3.02 5.66 2 6 C1.34 4.02 0.68 2.04 0 0 Z " fill="#134963" transform="translate(441,257)"/>
<path d="M0 0 C-0.66 1.32 -1.32 2.64 -2 4 C-3.98 4 -5.96 4 -8 4 C-3.375 0 -3.375 0 0 0 Z " fill="#3498D4" transform="translate(245,123)"/>
</svg>
